{"asset": {"version": "2.0", "generator": "PulseXR-Atlas"}, "scene": 0, "scenes": [{"nodes": [0], "name": "AtlasBrain"}], "nodes": [{"mesh": 0, "name": "atlas_brain"}], "meshes": [{"name": "atlas_brain", "primitives": [{"attributes": {"POSITION": 0}, "indices": 1, "material": 0}]}], "materials": [{"name": "atlas_brain", "pbrMetallicRoughness": {"baseColorFactor": [0.78, 0.75, 0.85, 0.22], "metallicFactor": 0.05, "roughnessFactor": 0.6}, "alphaMode": "BLEND", "doubleSided": true}], "accessors": [{"bufferView": 0, "componentType": 5126, "count": 31916, "type": "VEC3", "min": [-0.7624199390411377, -0.9036745429039001, -0.8134786486625671], "max": [0.7624064683914185, 1.0, 0.8000192642211914]}, {"bufferView": 1, "componentType": 5125, "count": 191448, "type": "SCALAR"}], "bufferViews": [{"buffer": 0, "byteOffset": 0, "byteLength": 382992, "target": 34962}, {"buffer": 0, "byteOffset": 382992, "byteLength": 765792, "target": 34963}], "buffers": [{"byteLength": 1148784, "uri": "data:application/octet-stream;base64,"}]}