{"asset": {"version": "2.0", "generator": "PulseXR"}, "scene": 0, "scenes": [{"nodes": [0], "name": "penumbra"}], "nodes": [{"mesh": 0, "name": "penumbra"}], "meshes": [{"name": "penumbra", "primitives": [{"attributes": {"POSITION": 0}, "indices": 1, "material": 0}]}], "materials": [{"name": "penumbra", "pbrMetallicRoughness": {"baseColorFactor": [1.0, 0.55, 0.0, 0.85], "metallicFactor": 0.05, "roughnessFactor": 0.75}, "alphaMode": "BLEND", "doubleSided": true}], "accessors": [{"bufferView": 0, "componentType": 5126, "count": 1272, "type": "VEC3", "min": [-0.9537579417228699, -1.0, -0.6018412113189697], "max": [0.8157956600189209, 0.791087806224823, 0.8026581406593323]}, {"bufferView": 1, "componentType": 5125, "count": 7224, "type": "SCALAR"}], "bufferViews": [{"buffer": 0, "byteOffset": 0, "byteLength": 15264, "target": 34962}, {"buffer": 0, "byteOffset": 15264, "byteLength": 28896, "target": 34963}], "buffers": [{"byteLength": 44160, "uri": "data:application/octet-stream;base64,"}]}