{"asset": {"version": "2.0", "generator": "PulseXR"}, "scene": 0, "scenes": [{"nodes": [0, 1, 2], "name": "Case_28"}], "nodes": [{"mesh": 0, "name": "brain"}, {"mesh": 1, "name": "stroke"}, {"mesh": 2, "name": "penumbra"}], "meshes": [{"name": "brain", "primitives": [{"attributes": {"POSITION": 0}, "indices": 1, "material": 0}]}, {"name": "stroke", "primitives": [{"attributes": {"POSITION": 2}, "indices": 3, "material": 1}]}, {"name": "penumbra", "primitives": [{"attributes": {"POSITION": 4}, "indices": 5, "material": 2}]}], "materials": [{"name": "brain", "pbrMetallicRoughness": {"baseColorFactor": [0.75, 0.72, 0.78, 0.18], "metallicFactor": 0.1, "roughnessFactor": 0.7}, "alphaMode": "BLEND", "doubleSided": true}, {"name": "stroke", "pbrMetallicRoughness": {"baseColorFactor": [0.92, 0.08, 0.05, 0.95], "metallicFactor": 0.1, "roughnessFactor": 0.7}, "alphaMode": "BLEND", "doubleSided": true}, {"name": "penumbra", "pbrMetallicRoughness": {"baseColorFactor": [1.0, 0.55, 0.0, 0.85], "metallicFactor": 0.1, "roughnessFactor": 0.7}, "alphaMode": "BLEND", "doubleSided": true}], "accessors": [{"bufferView": 0, "componentType": 5126, "count": 22655, "type": "VEC3", "min": [-0.8212347030639648, -0.8493386507034302, -0.9774830341339111], "max": [0.8094516396522522, 0.7889798283576965, 1.0]}, {"bufferView": 1, "componentType": 5125, "count": 135654, "type": "SCALAR"}, {"bufferView": 2, "componentType": 5126, "count": 6430, "type": "VEC3", "min": [-0.463095098733902, -0.9874401092529297, -1.0], "max": [0.4915953576564789, 0.9849495887756348, 0.9782988429069519]}, {"bufferView": 3, "componentType": 5125, "count": 38568, "type": "SCALAR"}, {"bufferView": 4, "componentType": 5126, "count": 9654, "type": "VEC3", "min": [-0.5563535690307617, -0.6516448259353638, -0.6826231479644775], "max": [0.7930603623390198, 0.5452215075492859, 1.0]}, {"bufferView": 5, "componentType": 5125, "count": 57294, "type": "SCALAR"}], "bufferViews": [{"buffer": 0, "byteOffset": 0, "byteLength": 271860, "target": 34962}, {"buffer": 0, "byteOffset": 271860, "byteLength": 542616, "target": 34963}, {"buffer": 0, "byteOffset": 814476, "byteLength": 77160, "target": 34962}, {"buffer": 0, "byteOffset": 891636, "byteLength": 154272, "target": 34963}, {"buffer": 0, "byteOffset": 1045908, "byteLength": 115848, "target": 34962}, {"buffer": 0, "byteOffset": 1161756, "byteLength": 229176, "target": 34963}], "buffers": [{"byteLength": 1390932, "uri": "data:application/octet-stream;base64,"}]}