{"asset": {"version": "2.0", "generator": "PulseXR"}, "scene": 0, "scenes": [{"nodes": [0], "name": "stroke"}], "nodes": [{"mesh": 0, "name": "stroke"}], "meshes": [{"name": "stroke", "primitives": [{"attributes": {"POSITION": 0}, "indices": 1, "material": 0}]}], "materials": [{"name": "stroke", "pbrMetallicRoughness": {"baseColorFactor": [0.92, 0.08, 0.05, 1.0], "metallicFactor": 0.05, "roughnessFactor": 0.75}, "alphaMode": "OPAQUE", "doubleSided": true}], "accessors": [{"bufferView": 0, "componentType": 5126, "count": 6070, "type": "VEC3", "min": [-0.4634097218513489, -0.9677267670631409, -1.0], "max": [0.5005931854248047, 0.9725502729415894, 0.9739971160888672]}, {"bufferView": 1, "componentType": 5125, "count": 36408, "type": "SCALAR"}], "bufferViews": [{"buffer": 0, "byteOffset": 0, "byteLength": 72840, "target": 34962}, {"buffer": 0, "byteOffset": 72840, "byteLength": 145632, "target": 34963}], "buffers": [{"byteLength": 218472, "uri": "data:application/octet-stream;base64,"}]}