{"asset": {"version": "2.0", "generator": "PulseXR"}, "scene": 0, "scenes": [{"nodes": [0, 1, 2], "name": "Case_17"}], "nodes": [{"mesh": 0, "name": "brain"}, {"mesh": 1, "name": "stroke"}, {"mesh": 2, "name": "penumbra"}], "meshes": [{"name": "brain", "primitives": [{"attributes": {"POSITION": 0}, "indices": 1, "material": 0}]}, {"name": "stroke", "primitives": [{"attributes": {"POSITION": 2}, "indices": 3, "material": 1}]}, {"name": "penumbra", "primitives": [{"attributes": {"POSITION": 4}, "indices": 5, "material": 2}]}], "materials": [{"name": "brain", "pbrMetallicRoughness": {"baseColorFactor": [0.75, 0.72, 0.78, 0.18], "metallicFactor": 0.1, "roughnessFactor": 0.7}, "alphaMode": "BLEND", "doubleSided": true}, {"name": "stroke", "pbrMetallicRoughness": {"baseColorFactor": [0.92, 0.08, 0.05, 0.95], "metallicFactor": 0.1, "roughnessFactor": 0.7}, "alphaMode": "BLEND", "doubleSided": true}, {"name": "penumbra", "pbrMetallicRoughness": {"baseColorFactor": [1.0, 0.55, 0.0, 0.85], "metallicFactor": 0.1, "roughnessFactor": 0.7}, "alphaMode": "BLEND", "doubleSided": true}], "accessors": [{"bufferView": 0, "componentType": 5126, "count": 23616, "type": "VEC3", "min": [-0.8292458653450012, -0.829948365688324, -1.0], "max": [0.82117760181427, 0.7853004932403564, 0.9087883234024048]}, {"bufferView": 1, "componentType": 5125, "count": 141684, "type": "SCALAR"}, {"bufferView": 2, "componentType": 5126, "count": 2992, "type": "VEC3", "min": [-0.5357194542884827, -0.7389091849327087, -1.0], "max": [0.5562073588371277, 0.7130715250968933, 0.6730588674545288]}, {"bufferView": 3, "componentType": 5125, "count": 17940, "type": "SCALAR"}, {"bufferView": 4, "componentType": 5126, "count": 16890, "type": "VEC3", "min": [-0.7507012486457825, -0.8315155506134033, -1.0], "max": [0.8175517916679382, 0.686387836933136, 0.7787824273109436]}, {"bufferView": 5, "componentType": 5125, "count": 100404, "type": "SCALAR"}], "bufferViews": [{"buffer": 0, "byteOffset": 0, "byteLength": 283392, "target": 34962}, {"buffer": 0, "byteOffset": 283392, "byteLength": 566736, "target": 34963}, {"buffer": 0, "byteOffset": 850128, "byteLength": 35904, "target": 34962}, {"buffer": 0, "byteOffset": 886032, "byteLength": 71760, "target": 34963}, {"buffer": 0, "byteOffset": 957792, "byteLength": 202680, "target": 34962}, {"buffer": 0, "byteOffset": 1160472, "byteLength": 401616, "target": 34963}], "buffers": [{"byteLength": 1562088, "uri": "data:application/octet-stream;base64,"}]}