{"asset": {"version": "2.0", "generator": "PulseXR"}, "scene": 0, "scenes": [{"nodes": [0], "name": "brain"}], "nodes": [{"mesh": 0, "name": "brain"}], "meshes": [{"name": "brain", "primitives": [{"attributes": {"POSITION": 0}, "indices": 1, "material": 0}]}], "materials": [{"name": "brain", "pbrMetallicRoughness": {"baseColorFactor": [0.78, 0.75, 0.82, 0.15], "metallicFactor": 0.05, "roughnessFactor": 0.75}, "alphaMode": "BLEND", "doubleSided": true}], "accessors": [{"bufferView": 0, "componentType": 5126, "count": 22098, "type": "VEC3", "min": [-0.8274891972541809, -0.8679707646369934, -0.9200055599212646], "max": [0.8213478922843933, 0.8264016509056091, 1.0]}, {"bufferView": 1, "componentType": 5125, "count": 132576, "type": "SCALAR"}], "bufferViews": [{"buffer": 0, "byteOffset": 0, "byteLength": 265176, "target": 34962}, {"buffer": 0, "byteOffset": 265176, "byteLength": 530304, "target": 34963}], "buffers": [{"byteLength": 795480, "uri": "data:application/octet-stream;base64,"}]}