{"asset": {"version": "2.0", "generator": "PulseXR"}, "scene": 0, "scenes": [{"nodes": [0], "name": "stroke"}], "nodes": [{"mesh": 0, "name": "stroke"}], "meshes": [{"name": "stroke", "primitives": [{"attributes": {"POSITION": 0}, "indices": 1, "material": 0}]}], "materials": [{"name": "stroke", "pbrMetallicRoughness": {"baseColorFactor": [0.92, 0.08, 0.05, 1.0], "metallicFactor": 0.05, "roughnessFactor": 0.75}, "alphaMode": "OPAQUE", "doubleSided": true}], "accessors": [{"bufferView": 0, "componentType": 5126, "count": 2658, "type": "VEC3", "min": [-0.5636711716651917, -0.8447636961936951, -1.0], "max": [0.6290576457977295, 0.822634220123291, 0.7213531732559204]}, {"bufferView": 1, "componentType": 5125, "count": 15936, "type": "SCALAR"}], "bufferViews": [{"buffer": 0, "byteOffset": 0, "byteLength": 31896, "target": 34962}, {"buffer": 0, "byteOffset": 31896, "byteLength": 63744, "target": 34963}], "buffers": [{"byteLength": 95640, "uri": "data:application/octet-stream;base64,"}]}