{"asset": {"version": "2.0", "generator": "PulseXR"}, "scene": 0, "scenes": [{"nodes": [0], "name": "penumbra"}], "nodes": [{"mesh": 0, "name": "penumbra"}], "meshes": [{"name": "penumbra", "primitives": [{"attributes": {"POSITION": 0}, "indices": 1, "material": 0}]}], "materials": [{"name": "penumbra", "pbrMetallicRoughness": {"baseColorFactor": [1.0, 0.55, 0.0, 0.85], "metallicFactor": 0.05, "roughnessFactor": 0.75}, "alphaMode": "BLEND", "doubleSided": true}], "accessors": [{"bufferView": 0, "componentType": 5126, "count": 15996, "type": "VEC3", "min": [-0.6199306845664978, -1.0, -0.8610564470291138], "max": [0.8574414849281311, 0.7035672068595886, 0.8679892420768738]}, {"bufferView": 1, "componentType": 5125, "count": 95376, "type": "SCALAR"}], "bufferViews": [{"buffer": 0, "byteOffset": 0, "byteLength": 191952, "target": 34962}, {"buffer": 0, "byteOffset": 191952, "byteLength": 381504, "target": 34963}], "buffers": [{"byteLength": 573456, "uri": "data:application/octet-stream;base64,"}]}