{"asset": {"version": "2.0", "generator": "PulseXR"}, "scene": 0, "scenes": [{"nodes": [0], "name": "penumbra"}], "nodes": [{"mesh": 0, "name": "penumbra"}], "meshes": [{"name": "penumbra", "primitives": [{"attributes": {"POSITION": 0}, "indices": 1, "material": 0}]}], "materials": [{"name": "penumbra", "pbrMetallicRoughness": {"baseColorFactor": [1.0, 0.55, 0.0, 0.85], "metallicFactor": 0.05, "roughnessFactor": 0.75}, "alphaMode": "BLEND", "doubleSided": true}], "accessors": [{"bufferView": 0, "componentType": 5126, "count": 8671, "type": "VEC3", "min": [-0.929860532283783, -0.9004719257354736, -0.9405482411384583], "max": [0.6580432057380676, 0.7008466720581055, 1.0]}, {"bufferView": 1, "componentType": 5125, "count": 51390, "type": "SCALAR"}], "bufferViews": [{"buffer": 0, "byteOffset": 0, "byteLength": 104052, "target": 34962}, {"buffer": 0, "byteOffset": 104052, "byteLength": 205560, "target": 34963}], "buffers": [{"byteLength": 309612, "uri": "data:application/octet-stream;base64,"}]}