{"asset": {"version": "2.0", "generator": "PulseXR"}, "scene": 0, "scenes": [{"nodes": [0], "name": "penumbra"}], "nodes": [{"mesh": 0, "name": "penumbra"}], "meshes": [{"name": "penumbra", "primitives": [{"attributes": {"POSITION": 0}, "indices": 1, "material": 0}]}], "materials": [{"name": "penumbra", "pbrMetallicRoughness": {"baseColorFactor": [1.0, 0.55, 0.0, 0.85], "metallicFactor": 0.05, "roughnessFactor": 0.75}, "alphaMode": "BLEND", "doubleSided": true}], "accessors": [{"bufferView": 0, "componentType": 5126, "count": 1694, "type": "VEC3", "min": [-0.520807147026062, -0.537296712398529, -0.5220350027084351], "max": [0.6135280728340149, 0.44353777170181274, 1.0]}, {"bufferView": 1, "componentType": 5125, "count": 9852, "type": "SCALAR"}], "bufferViews": [{"buffer": 0, "byteOffset": 0, "byteLength": 20328, "target": 34962}, {"buffer": 0, "byteOffset": 20328, "byteLength": 39408, "target": 34963}], "buffers": [{"byteLength": 59736, "uri": "data:application/octet-stream;base64,"}]}