{"asset": {"version": "2.0", "generator": "PulseXR"}, "scene": 0, "scenes": [{"nodes": [0, 1, 2], "name": "Case_12"}], "nodes": [{"mesh": 0, "name": "brain"}, {"mesh": 1, "name": "stroke"}, {"mesh": 2, "name": "penumbra"}], "meshes": [{"name": "brain", "primitives": [{"attributes": {"POSITION": 0}, "indices": 1, "material": 0}]}, {"name": "stroke", "primitives": [{"attributes": {"POSITION": 2}, "indices": 3, "material": 1}]}, {"name": "penumbra", "primitives": [{"attributes": {"POSITION": 4}, "indices": 5, "material": 2}]}], "materials": [{"name": "brain", "pbrMetallicRoughness": {"baseColorFactor": [0.75, 0.72, 0.78, 0.18], "metallicFactor": 0.1, "roughnessFactor": 0.7}, "alphaMode": "BLEND", "doubleSided": true}, {"name": "stroke", "pbrMetallicRoughness": {"baseColorFactor": [0.92, 0.08, 0.05, 0.95], "metallicFactor": 0.1, "roughnessFactor": 0.7}, "alphaMode": "BLEND", "doubleSided": true}, {"name": "penumbra", "pbrMetallicRoughness": {"baseColorFactor": [1.0, 0.55, 0.0, 0.85], "metallicFactor": 0.1, "roughnessFactor": 0.7}, "alphaMode": "BLEND", "doubleSided": true}], "accessors": [{"bufferView": 0, "componentType": 5126, "count": 20708, "type": "VEC3", "min": [-0.699928879737854, -0.7711367011070251, -1.0], "max": [0.7428844571113586, 0.7443113327026367, 0.94016432762146]}, {"bufferView": 1, "componentType": 5125, "count": 124236, "type": "SCALAR"}, {"bufferView": 2, "componentType": 5126, "count": 4610, "type": "VEC3", "min": [-0.4624389111995697, -1.0, -0.8287878632545471], "max": [0.4882619380950928, 0.9949357509613037, 0.8244082927703857]}, {"bufferView": 3, "componentType": 5125, "count": 27648, "type": "SCALAR"}, {"bufferView": 4, "componentType": 5126, "count": 35014, "type": "VEC3", "min": [-0.8462995290756226, -0.9016855359077454, -1.0], "max": [0.732174813747406, 0.7254166603088379, 0.9589249491691589]}, {"bufferView": 5, "componentType": 5125, "count": 210480, "type": "SCALAR"}], "bufferViews": [{"buffer": 0, "byteOffset": 0, "byteLength": 248496, "target": 34962}, {"buffer": 0, "byteOffset": 248496, "byteLength": 496944, "target": 34963}, {"buffer": 0, "byteOffset": 745440, "byteLength": 55320, "target": 34962}, {"buffer": 0, "byteOffset": 800760, "byteLength": 110592, "target": 34963}, {"buffer": 0, "byteOffset": 911352, "byteLength": 420168, "target": 34962}, {"buffer": 0, "byteOffset": 1331520, "byteLength": 841920, "target": 34963}], "buffers": [{"byteLength": 2173440, "uri": "data:application/octet-stream;base64,"}]}