{"asset": {"version": "2.0", "generator": "PulseXR"}, "scene": 0, "scenes": [{"nodes": [0], "name": "stroke"}], "nodes": [{"mesh": 0, "name": "stroke"}], "meshes": [{"name": "stroke", "primitives": [{"attributes": {"POSITION": 0}, "indices": 1, "material": 0}]}], "materials": [{"name": "stroke", "pbrMetallicRoughness": {"baseColorFactor": [0.92, 0.08, 0.05, 1.0], "metallicFactor": 0.05, "roughnessFactor": 0.75}, "alphaMode": "OPAQUE", "doubleSided": true}], "accessors": [{"bufferView": 0, "componentType": 5126, "count": 4702, "type": "VEC3", "min": [-0.453298419713974, -0.9916321039199829, -0.8131960034370422], "max": [0.4683050215244293, 1.0, 0.8040802478790283]}, {"bufferView": 1, "componentType": 5125, "count": 28200, "type": "SCALAR"}], "bufferViews": [{"buffer": 0, "byteOffset": 0, "byteLength": 56424, "target": 34962}, {"buffer": 0, "byteOffset": 56424, "byteLength": 112800, "target": 34963}], "buffers": [{"byteLength": 169224, "uri": "data:application/octet-stream;base64,"}]}