{"asset": {"version": "2.0", "generator": "PulseXR"}, "scene": 0, "scenes": [{"nodes": [0], "name": "penumbra"}], "nodes": [{"mesh": 0, "name": "penumbra"}], "meshes": [{"name": "penumbra", "primitives": [{"attributes": {"POSITION": 0}, "indices": 1, "material": 0}]}], "materials": [{"name": "penumbra", "pbrMetallicRoughness": {"baseColorFactor": [1.0, 0.55, 0.0, 0.85], "metallicFactor": 0.05, "roughnessFactor": 0.75}, "alphaMode": "BLEND", "doubleSided": true}], "accessors": [{"bufferView": 0, "componentType": 5126, "count": 1390, "type": "VEC3", "min": [-0.7993475198745728, -1.0, -0.6047120094299316], "max": [0.9033230543136597, 0.6254787445068359, 0.7924454808235168]}, {"bufferView": 1, "componentType": 5125, "count": 7860, "type": "SCALAR"}], "bufferViews": [{"buffer": 0, "byteOffset": 0, "byteLength": 16680, "target": 34962}, {"buffer": 0, "byteOffset": 16680, "byteLength": 31440, "target": 34963}], "buffers": [{"byteLength": 48120, "uri": "data:application/octet-stream;base64,"}]}