{"asset": {"version": "2.0", "generator": "PulseXR"}, "scene": 0, "scenes": [{"nodes": [0], "name": "stroke"}], "nodes": [{"mesh": 0, "name": "stroke"}], "meshes": [{"name": "stroke", "primitives": [{"attributes": {"POSITION": 0}, "indices": 1, "material": 0}]}], "materials": [{"name": "stroke", "pbrMetallicRoughness": {"baseColorFactor": [0.92, 0.08, 0.05, 1.0], "metallicFactor": 0.05, "roughnessFactor": 0.75}, "alphaMode": "OPAQUE", "doubleSided": true}], "accessors": [{"bufferView": 0, "componentType": 5126, "count": 6710, "type": "VEC3", "min": [-0.3849615156650543, -0.9302138686180115, -1.0], "max": [0.3991348147392273, 0.952783465385437, 0.8426668643951416]}, {"bufferView": 1, "componentType": 5125, "count": 40248, "type": "SCALAR"}], "bufferViews": [{"buffer": 0, "byteOffset": 0, "byteLength": 80520, "target": 34962}, {"buffer": 0, "byteOffset": 80520, "byteLength": 160992, "target": 34963}], "buffers": [{"byteLength": 241512, "uri": "data:application/octet-stream;base64,"}]}