{"asset": {"version": "2.0", "generator": "PulseXR"}, "scene": 0, "scenes": [{"nodes": [0], "name": "brain"}], "nodes": [{"mesh": 0, "name": "brain"}], "meshes": [{"name": "brain", "primitives": [{"attributes": {"POSITION": 0}, "indices": 1, "material": 0}]}], "materials": [{"name": "brain", "pbrMetallicRoughness": {"baseColorFactor": [0.78, 0.75, 0.82, 0.15], "metallicFactor": 0.05, "roughnessFactor": 0.75}, "alphaMode": "BLEND", "doubleSided": true}], "accessors": [{"bufferView": 0, "componentType": 5126, "count": 24350, "type": "VEC3", "min": [-0.8839548230171204, -0.9256895780563354, -0.9494209885597229], "max": [0.8729121088981628, 0.8942751288414001, 1.0]}, {"bufferView": 1, "componentType": 5125, "count": 146088, "type": "SCALAR"}], "bufferViews": [{"buffer": 0, "byteOffset": 0, "byteLength": 292200, "target": 34962}, {"buffer": 0, "byteOffset": 292200, "byteLength": 584352, "target": 34963}], "buffers": [{"byteLength": 876552, "uri": "data:application/octet-stream;base64,"}]}