{"asset": {"version": "2.0", "generator": "PulseXR"}, "scene": 0, "scenes": [{"nodes": [0, 1, 2], "name": "Case_1"}], "nodes": [{"mesh": 0, "name": "brain"}, {"mesh": 1, "name": "stroke"}, {"mesh": 2, "name": "penumbra"}], "meshes": [{"name": "brain", "primitives": [{"attributes": {"POSITION": 0}, "indices": 1, "material": 0}]}, {"name": "stroke", "primitives": [{"attributes": {"POSITION": 2}, "indices": 3, "material": 1}]}, {"name": "penumbra", "primitives": [{"attributes": {"POSITION": 4}, "indices": 5, "material": 2}]}], "materials": [{"name": "brain", "pbrMetallicRoughness": {"baseColorFactor": [0.75, 0.72, 0.78, 0.18], "metallicFactor": 0.1, "roughnessFactor": 0.7}, "alphaMode": "BLEND", "doubleSided": true}, {"name": "stroke", "pbrMetallicRoughness": {"baseColorFactor": [0.92, 0.08, 0.05, 0.95], "metallicFactor": 0.1, "roughnessFactor": 0.7}, "alphaMode": "BLEND", "doubleSided": true}, {"name": "penumbra", "pbrMetallicRoughness": {"baseColorFactor": [1.0, 0.55, 0.0, 0.85], "metallicFactor": 0.1, "roughnessFactor": 0.7}, "alphaMode": "BLEND", "doubleSided": true}], "accessors": [{"bufferView": 0, "componentType": 5126, "count": 21798, "type": "VEC3", "min": [-0.7562509179115295, -0.8917443752288818, -1.0], "max": [0.7686570286750793, 0.8378800749778748, 0.9541614651679993]}, {"bufferView": 1, "componentType": 5125, "count": 130776, "type": "SCALAR"}, {"bufferView": 2, "componentType": 5126, "count": 7504, "type": "VEC3", "min": [-0.4097522497177124, -1.0, -0.8637491464614868], "max": [0.4373420774936676, 0.9846698641777039, 0.9111265540122986]}, {"bufferView": 3, "componentType": 5125, "count": 45012, "type": "SCALAR"}, {"bufferView": 4, "componentType": 5126, "count": 31916, "type": "VEC3", "min": [-0.5432759523391724, -0.8330959677696228, -1.0], "max": [0.7903221845626831, 0.7201006412506104, 0.7719727158546448]}, {"bufferView": 5, "componentType": 5125, "count": 191724, "type": "SCALAR"}], "bufferViews": [{"buffer": 0, "byteOffset": 0, "byteLength": 261576, "target": 34962}, {"buffer": 0, "byteOffset": 261576, "byteLength": 523104, "target": 34963}, {"buffer": 0, "byteOffset": 784680, "byteLength": 90048, "target": 34962}, {"buffer": 0, "byteOffset": 874728, "byteLength": 180048, "target": 34963}, {"buffer": 0, "byteOffset": 1054776, "byteLength": 382992, "target": 34962}, {"buffer": 0, "byteOffset": 1437768, "byteLength": 766896, "target": 34963}], "buffers": [{"byteLength": 2204664, "uri": "data:application/octet-stream;base64,"}]}