{"asset": {"version": "2.0", "generator": "PulseXR"}, "scene": 0, "scenes": [{"nodes": [0], "name": "brain"}], "nodes": [{"mesh": 0, "name": "brain"}], "meshes": [{"name": "brain", "primitives": [{"attributes": {"POSITION": 0}, "indices": 1, "material": 0}]}], "materials": [{"name": "brain", "pbrMetallicRoughness": {"baseColorFactor": [0.78, 0.75, 0.82, 0.15], "metallicFactor": 0.05, "roughnessFactor": 0.75}, "alphaMode": "BLEND", "doubleSided": true}], "accessors": [{"bufferView": 0, "componentType": 5126, "count": 21798, "type": "VEC3", "min": [-0.7500723600387573, -0.8897885680198669, -1.0], "max": [0.7620691061019897, 0.8334887623786926, 0.953857421875]}, {"bufferView": 1, "componentType": 5125, "count": 130776, "type": "SCALAR"}], "bufferViews": [{"buffer": 0, "byteOffset": 0, "byteLength": 261576, "target": 34962}, {"buffer": 0, "byteOffset": 261576, "byteLength": 523104, "target": 34963}], "buffers": [{"byteLength": 784680, "uri": "data:application/octet-stream;base64,"}]}