{"asset": {"version": "2.0", "generator": "PulseXR"}, "scene": 0, "scenes": [{"nodes": [0], "name": "brain"}], "nodes": [{"mesh": 0, "name": "brain"}], "meshes": [{"name": "brain", "primitives": [{"attributes": {"POSITION": 0}, "indices": 1, "material": 0}]}], "materials": [{"name": "brain", "pbrMetallicRoughness": {"baseColorFactor": [0.78, 0.75, 0.82, 0.15], "metallicFactor": 0.05, "roughnessFactor": 0.75}, "alphaMode": "BLEND", "doubleSided": true}], "accessors": [{"bufferView": 0, "componentType": 5126, "count": 22655, "type": "VEC3", "min": [-0.8162152171134949, -0.8435037732124329, -0.9769997596740723], "max": [0.8018966913223267, 0.7863024473190308, 1.0]}, {"bufferView": 1, "componentType": 5125, "count": 135654, "type": "SCALAR"}], "bufferViews": [{"buffer": 0, "byteOffset": 0, "byteLength": 271860, "target": 34962}, {"buffer": 0, "byteOffset": 271860, "byteLength": 542616, "target": 34963}], "buffers": [{"byteLength": 814476, "uri": "data:application/octet-stream;base64,"}]}