{"asset": {"version": "2.0", "generator": "PulseXR"}, "scene": 0, "scenes": [{"nodes": [0], "name": "stroke"}], "nodes": [{"mesh": 0, "name": "stroke"}], "meshes": [{"name": "stroke", "primitives": [{"attributes": {"POSITION": 0}, "indices": 1, "material": 0}]}], "materials": [{"name": "stroke", "pbrMetallicRoughness": {"baseColorFactor": [0.92, 0.08, 0.05, 1.0], "metallicFactor": 0.05, "roughnessFactor": 0.75}, "alphaMode": "OPAQUE", "doubleSided": true}], "accessors": [{"bufferView": 0, "componentType": 5126, "count": 7392, "type": "VEC3", "min": [-0.3994293808937073, -1.0, -0.8217317461967468], "max": [0.42388126254081726, 0.9752644896507263, 0.8978687524795532]}, {"bufferView": 1, "componentType": 5125, "count": 44340, "type": "SCALAR"}], "bufferViews": [{"buffer": 0, "byteOffset": 0, "byteLength": 88704, "target": 34962}, {"buffer": 0, "byteOffset": 88704, "byteLength": 177360, "target": 34963}], "buffers": [{"byteLength": 266064, "uri": "data:application/octet-stream;base64,"}]}