{"asset": {"version": "2.0", "generator": "PulseXR"}, "scene": 0, "scenes": [{"nodes": [0], "name": "penumbra"}], "nodes": [{"mesh": 0, "name": "penumbra"}], "meshes": [{"name": "penumbra", "primitives": [{"attributes": {"POSITION": 0}, "indices": 1, "material": 0}]}], "materials": [{"name": "penumbra", "pbrMetallicRoughness": {"baseColorFactor": [1.0, 0.55, 0.0, 0.85], "metallicFactor": 0.05, "roughnessFactor": 0.75}, "alphaMode": "BLEND", "doubleSided": true}], "accessors": [{"bufferView": 0, "componentType": 5126, "count": 7593, "type": "VEC3", "min": [-0.5797214508056641, -0.9282472729682922, -0.9501205086708069], "max": [0.8321892619132996, 0.7097525000572205, 1.0]}, {"bufferView": 1, "componentType": 5125, "count": 44922, "type": "SCALAR"}], "bufferViews": [{"buffer": 0, "byteOffset": 0, "byteLength": 91116, "target": 34962}, {"buffer": 0, "byteOffset": 91116, "byteLength": 179688, "target": 34963}], "buffers": [{"byteLength": 270804, "uri": "data:application/octet-stream;base64,"}]}