{"asset": {"version": "2.0", "generator": "PulseXR"}, "scene": 0, "scenes": [{"nodes": [0, 1, 2], "name": "Case_30"}], "nodes": [{"mesh": 0, "name": "brain"}, {"mesh": 1, "name": "stroke"}, {"mesh": 2, "name": "penumbra"}], "meshes": [{"name": "brain", "primitives": [{"attributes": {"POSITION": 0}, "indices": 1, "material": 0}]}, {"name": "stroke", "primitives": [{"attributes": {"POSITION": 2}, "indices": 3, "material": 1}]}, {"name": "penumbra", "primitives": [{"attributes": {"POSITION": 4}, "indices": 5, "material": 2}]}], "materials": [{"name": "brain", "pbrMetallicRoughness": {"baseColorFactor": [0.75, 0.72, 0.78, 0.18], "metallicFactor": 0.1, "roughnessFactor": 0.7}, "alphaMode": "BLEND", "doubleSided": true}, {"name": "stroke", "pbrMetallicRoughness": {"baseColorFactor": [0.92, 0.08, 0.05, 0.95], "metallicFactor": 0.1, "roughnessFactor": 0.7}, "alphaMode": "BLEND", "doubleSided": true}, {"name": "penumbra", "pbrMetallicRoughness": {"baseColorFactor": [1.0, 0.55, 0.0, 0.85], "metallicFactor": 0.1, "roughnessFactor": 0.7}, "alphaMode": "BLEND", "doubleSided": true}], "accessors": [{"bufferView": 0, "componentType": 5126, "count": 22098, "type": "VEC3", "min": [-0.8291502594947815, -0.8698379993438721, -0.9142959713935852], "max": [0.8246210813522339, 0.8294585943222046, 1.0]}, {"bufferView": 1, "componentType": 5125, "count": 132576, "type": "SCALAR"}, {"bufferView": 2, "componentType": 5126, "count": 5578, "type": "VEC3", "min": [-0.4719858765602112, -0.9860905408859253, -1.0], "max": [0.4624634385108948, 0.9837906360626221, 0.8721967935562134]}, {"bufferView": 3, "componentType": 5125, "count": 33456, "type": "SCALAR"}, {"bufferView": 4, "componentType": 5126, "count": 15393, "type": "VEC3", "min": [-0.8910821676254272, -0.8774532079696655, -0.6715853810310364], "max": [0.7722174525260925, 0.7929935455322266, 1.0]}, {"bufferView": 5, "componentType": 5125, "count": 91470, "type": "SCALAR"}], "bufferViews": [{"buffer": 0, "byteOffset": 0, "byteLength": 265176, "target": 34962}, {"buffer": 0, "byteOffset": 265176, "byteLength": 530304, "target": 34963}, {"buffer": 0, "byteOffset": 795480, "byteLength": 66936, "target": 34962}, {"buffer": 0, "byteOffset": 862416, "byteLength": 133824, "target": 34963}, {"buffer": 0, "byteOffset": 996240, "byteLength": 184716, "target": 34962}, {"buffer": 0, "byteOffset": 1180956, "byteLength": 365880, "target": 34963}], "buffers": [{"byteLength": 1546836, "uri": "data:application/octet-stream;base64,"}]}