{"asset": {"version": "2.0", "generator": "PulseXR"}, "scene": 0, "scenes": [{"nodes": [0], "name": "brain"}], "nodes": [{"mesh": 0, "name": "brain"}], "meshes": [{"name": "brain", "primitives": [{"attributes": {"POSITION": 0}, "indices": 1, "material": 0}]}], "materials": [{"name": "brain", "pbrMetallicRoughness": {"baseColorFactor": [0.78, 0.75, 0.82, 0.15], "metallicFactor": 0.05, "roughnessFactor": 0.75}, "alphaMode": "BLEND", "doubleSided": true}], "accessors": [{"bufferView": 0, "componentType": 5126, "count": 23616, "type": "VEC3", "min": [-0.8291671276092529, -0.835166335105896, -1.0], "max": [0.8228237628936768, 0.786043107509613, 0.919197678565979]}, {"bufferView": 1, "componentType": 5125, "count": 141684, "type": "SCALAR"}], "bufferViews": [{"buffer": 0, "byteOffset": 0, "byteLength": 283392, "target": 34962}, {"buffer": 0, "byteOffset": 283392, "byteLength": 566736, "target": 34963}], "buffers": [{"byteLength": 850128, "uri": "data:application/octet-stream;base64,"}]}