{"asset": {"version": "2.0", "generator": "PulseXR"}, "scene": 0, "scenes": [{"nodes": [0], "name": "brain"}], "nodes": [{"mesh": 0, "name": "brain"}], "meshes": [{"name": "brain", "primitives": [{"attributes": {"POSITION": 0}, "indices": 1, "material": 0}]}], "materials": [{"name": "brain", "pbrMetallicRoughness": {"baseColorFactor": [0.78, 0.75, 0.82, 0.15], "metallicFactor": 0.05, "roughnessFactor": 0.75}, "alphaMode": "BLEND", "doubleSided": true}], "accessors": [{"bufferView": 0, "componentType": 5126, "count": 20708, "type": "VEC3", "min": [-0.7004522085189819, -0.7715747952461243, -1.0], "max": [0.7396524548530579, 0.7424615025520325, 0.9406223893165588]}, {"bufferView": 1, "componentType": 5125, "count": 124236, "type": "SCALAR"}], "bufferViews": [{"buffer": 0, "byteOffset": 0, "byteLength": 248496, "target": 34962}, {"buffer": 0, "byteOffset": 248496, "byteLength": 496944, "target": 34963}], "buffers": [{"byteLength": 745440, "uri": "data:application/octet-stream;base64,"}]}