{"asset": {"version": "2.0", "generator": "PulseXR"}, "scene": 0, "scenes": [{"nodes": [0, 1, 2], "name": "Case_16"}], "nodes": [{"mesh": 0, "name": "brain"}, {"mesh": 1, "name": "stroke"}, {"mesh": 2, "name": "penumbra"}], "meshes": [{"name": "brain", "primitives": [{"attributes": {"POSITION": 0}, "indices": 1, "material": 0}]}, {"name": "stroke", "primitives": [{"attributes": {"POSITION": 2}, "indices": 3, "material": 1}]}, {"name": "penumbra", "primitives": [{"attributes": {"POSITION": 4}, "indices": 5, "material": 2}]}], "materials": [{"name": "brain", "pbrMetallicRoughness": {"baseColorFactor": [0.75, 0.72, 0.78, 0.18], "metallicFactor": 0.1, "roughnessFactor": 0.7}, "alphaMode": "BLEND", "doubleSided": true}, {"name": "stroke", "pbrMetallicRoughness": {"baseColorFactor": [0.92, 0.08, 0.05, 0.95], "metallicFactor": 0.1, "roughnessFactor": 0.7}, "alphaMode": "BLEND", "doubleSided": true}, {"name": "penumbra", "pbrMetallicRoughness": {"baseColorFactor": [1.0, 0.55, 0.0, 0.85], "metallicFactor": 0.1, "roughnessFactor": 0.7}, "alphaMode": "BLEND", "doubleSided": true}], "accessors": [{"bufferView": 0, "componentType": 5126, "count": 24350, "type": "VEC3", "min": [-0.8908891677856445, -0.9258725047111511, -0.9632446765899658], "max": [0.8817417025566101, 0.9035083055496216, 1.0]}, {"bufferView": 1, "componentType": 5125, "count": 146088, "type": "SCALAR"}, {"bufferView": 2, "componentType": 5126, "count": 6750, "type": "VEC3", "min": [-0.3831000030040741, -0.8991786241531372, -1.0], "max": [0.4093969464302063, 0.9070261716842651, 0.8254990577697754]}, {"bufferView": 3, "componentType": 5125, "count": 40488, "type": "SCALAR"}, {"bufferView": 4, "componentType": 5126, "count": 40513, "type": "VEC3", "min": [-0.7100093364715576, -1.0, -0.9512885212898254], "max": [0.8902690410614014, 0.8468863368034363, 0.9323306679725647]}, {"bufferView": 5, "componentType": 5125, "count": 243570, "type": "SCALAR"}], "bufferViews": [{"buffer": 0, "byteOffset": 0, "byteLength": 292200, "target": 34962}, {"buffer": 0, "byteOffset": 292200, "byteLength": 584352, "target": 34963}, {"buffer": 0, "byteOffset": 876552, "byteLength": 81000, "target": 34962}, {"buffer": 0, "byteOffset": 957552, "byteLength": 161952, "target": 34963}, {"buffer": 0, "byteOffset": 1119504, "byteLength": 486156, "target": 34962}, {"buffer": 0, "byteOffset": 1605660, "byteLength": 974280, "target": 34963}], "buffers": [{"byteLength": 2579940, "uri": "data:application/octet-stream;base64,"}]}