{"asset": {"version": "2.0", "generator": "PulseXR"}, "scene": 0, "scenes": [{"nodes": [0], "name": "stroke"}], "nodes": [{"mesh": 0, "name": "stroke"}], "meshes": [{"name": "stroke", "primitives": [{"attributes": {"POSITION": 0}, "indices": 1, "material": 0}]}], "materials": [{"name": "stroke", "pbrMetallicRoughness": {"baseColorFactor": [0.92, 0.08, 0.05, 1.0], "metallicFactor": 0.05, "roughnessFactor": 0.75}, "alphaMode": "OPAQUE", "doubleSided": true}], "accessors": [{"bufferView": 0, "componentType": 5126, "count": 5644, "type": "VEC3", "min": [-0.46406763792037964, -0.9815921783447266, -1.0], "max": [0.45354223251342773, 0.9786771535873413, 0.8875514268875122]}, {"bufferView": 1, "componentType": 5125, "count": 33852, "type": "SCALAR"}], "bufferViews": [{"buffer": 0, "byteOffset": 0, "byteLength": 67728, "target": 34962}, {"buffer": 0, "byteOffset": 67728, "byteLength": 135408, "target": 34963}], "buffers": [{"byteLength": 203136, "uri": "data:application/octet-stream;base64,"}]}